<svg width="242" height="258" viewBox="0 0 242 258" fill="none" xmlns="http://www.w3.org/2000/svg">
<rect opacity="0.75" x="28" y="75" width="167.729" height="166" rx="20.75" fill="#DAE4FC"/>
<g opacity="0.9" clip-path="url(#clip0)" filter="url(#filter0_d)">
<path d="M79.8785 50.3296C78.971 48.8144 77.2845 47.9446 75.5234 48.0784L37.6696 51.0025C33.8371 51.2988 30.4233 53.3074 28.3029 56.5141L12.417 80.5415C10.8093 82.9734 10.5534 86.0164 11.7329 88.6821C12.912 91.3478 15.3358 93.2052 18.2161 93.6515L48.9103 98.4056C49.1491 98.4425 49.3876 98.4609 49.6243 98.4609C51.1966 98.4605 52.6841 97.6634 53.5483 96.3113L79.807 55.2315C80.7582 53.7431 80.7856 51.845 79.8785 50.3296V50.3296Z" fill="#49F38D"/>
<path d="M126.67 97.1217C125.155 96.2143 123.256 96.242 121.768 97.1931L80.6887 123.452C79.1331 124.446 78.3118 126.265 78.594 128.09L83.3479 158.784C83.7941 161.665 85.6518 164.088 88.3178 165.268C89.4265 165.758 90.6003 166 91.7686 166C93.4086 166 95.038 165.522 96.4581 164.583L120.486 148.697C123.693 146.577 125.701 143.163 125.997 139.331L128.921 101.477C129.058 99.716 128.186 98.0294 126.67 97.1217V97.1217Z" fill="#42DD80"/>
<path d="M70.8949 135.031C72.7489 136.885 75.3832 137.752 77.9691 137.319C115.89 130.979 145.898 99.5815 157.322 77.4946C170.007 52.9697 170.477 27.0529 169.814 14.8982C169.587 10.7331 166.267 7.41311 162.102 7.18579C149.947 6.52309 124.031 6.99294 99.5054 19.6784C77.4189 31.1024 46.0216 61.11 39.6809 99.0312C39.2486 101.617 40.1156 104.251 41.9696 106.105L70.8949 135.031Z" fill="#E4E4FF"/>
<path d="M167.435 9.56543L56.432 120.568L70.8947 135.031C72.7487 136.885 75.383 137.752 77.9689 137.319C115.89 130.979 145.898 99.5814 157.322 77.4949C170.007 52.9699 170.477 27.0531 169.814 14.8984C169.7 12.8159 168.813 10.9446 167.435 9.56543V9.56543Z" fill="#CDCBFF"/>
<path d="M119.918 80.3621C113.952 80.3624 107.99 78.0924 103.448 73.5513C99.0493 69.1524 96.6264 63.3033 96.6264 57.0822C96.6264 50.861 99.0493 45.0119 103.448 40.6131C112.529 31.5321 127.305 31.5318 136.386 40.6131C140.786 45.0119 143.208 50.861 143.208 57.0822C143.208 63.3033 140.786 69.1524 136.386 73.5513C131.846 78.0914 125.881 80.3615 119.918 80.3621V80.3621ZM106.742 43.907H106.745H106.742Z" fill="#466288"/>
<path d="M39.6806 99.0311C39.2484 101.617 40.1154 104.251 41.9693 106.105L70.8947 135.031C72.7486 136.885 75.383 137.752 77.9689 137.319C86.2204 135.94 94.0964 133.373 101.489 129.974L47.0256 75.5117C43.6273 82.9036 41.0604 90.7799 39.6806 99.0311V99.0311Z" fill="#466288"/>
<path d="M15.7526 138.031C16.9445 138.031 18.137 137.576 19.0463 136.666L34.2547 121.458C36.0738 119.639 36.0738 116.689 34.2547 114.87C32.4358 113.051 29.4865 113.051 27.667 114.87L12.4589 130.079C10.6397 131.898 10.6397 134.847 12.4589 136.666C13.3685 137.576 14.5604 138.031 15.7526 138.031V138.031Z" fill="#99C9F5"/>
<path d="M48.1923 128.808C46.3735 126.989 43.4239 126.989 41.6047 128.808L12.3655 158.047C10.5463 159.866 10.5463 162.816 12.3655 164.635C13.2751 165.544 14.4673 165.999 15.6595 165.999C16.8516 165.999 18.0438 165.544 18.9531 164.635L48.1923 135.395C50.0115 133.576 50.0115 130.627 48.1923 128.808V128.808Z" fill="#99C9F5"/>
<path d="M62.1298 142.746C60.3109 140.927 57.3613 140.927 55.5422 142.746L40.3341 157.954C38.5149 159.772 38.5149 162.722 40.3341 164.541C41.2436 165.451 42.4358 165.906 43.6277 165.906C44.8196 165.906 46.0121 165.451 46.9214 164.541L62.1298 149.333C63.949 147.514 63.949 144.564 62.1298 142.746V142.746Z" fill="#75BCEF"/>
<path d="M12.3655 164.635C13.2751 165.544 14.4672 165.999 15.6594 165.999C16.8516 165.999 18.0438 165.544 18.9531 164.634L48.1923 135.395C50.0115 133.576 50.0115 130.627 48.1923 128.808L12.3655 164.635Z" fill="#75BCEF"/>
<path d="M56.432 120.568L70.8947 135.031C72.7487 136.885 75.383 137.752 77.9689 137.319C86.2204 135.94 94.0964 133.373 101.489 129.974L74.2573 102.743L56.432 120.568Z" fill="#354A67"/>
<path d="M103.448 73.5517C107.99 78.0929 113.952 80.3633 119.918 80.3627C125.881 80.362 131.847 78.0916 136.387 73.5517C140.786 69.1525 143.208 63.3037 143.208 57.0825C143.208 50.8613 140.786 45.0122 136.387 40.6133L103.448 73.5517Z" fill="#354A67"/>
<path d="M119.917 43.1147C116.339 43.1147 112.76 44.4768 110.036 47.2012C107.397 49.8406 105.943 53.3497 105.943 57.0825C105.943 60.8153 107.397 64.3245 110.036 66.9638C115.485 72.4124 124.351 72.4127 129.799 66.9638C132.439 64.3242 133.892 60.815 133.892 57.0822C133.892 53.3494 132.439 49.8403 129.799 47.2009C127.075 44.4768 123.496 43.1147 119.917 43.1147V43.1147Z" fill="#4BBEFD"/>
<path d="M129.799 47.2012L110.036 66.9641C115.485 72.4126 124.351 72.4129 129.799 66.9641C132.438 64.3244 133.892 60.8152 133.892 57.0825C133.892 53.3497 132.439 49.8405 129.799 47.2012V47.2012Z" fill="#0590FB"/>
</g>
<rect x="87" y="191" width="154.441" height="67" rx="9.5087" fill="white"/>
<path d="M118.648 211.174C119.114 211.174 119.501 211.327 119.808 211.635C120.127 211.93 120.286 212.294 120.286 212.727C120.286 213.171 120.132 213.54 119.825 213.836C119.518 214.121 119.125 214.263 118.648 214.263C118.17 214.263 117.777 214.121 117.47 213.836C117.163 213.54 117.009 213.171 117.009 212.727C117.009 212.294 117.163 211.93 117.47 211.635C117.789 211.327 118.181 211.174 118.648 211.174ZM120.235 223.12H117.061L117.59 215.457H119.706L120.235 223.12ZM128.24 220.696C127.022 220.696 125.919 220.435 124.929 219.911C123.95 219.377 123.177 218.643 122.608 217.71C122.05 216.766 121.772 215.702 121.772 214.519C121.772 213.335 122.05 212.277 122.608 211.344C123.177 210.4 123.95 209.666 124.929 209.143C125.919 208.608 127.028 208.341 128.257 208.341C129.292 208.341 130.225 208.523 131.055 208.887C131.897 209.251 132.603 209.774 133.172 210.457L131.397 212.095C130.589 211.162 129.588 210.696 128.393 210.696C127.654 210.696 126.994 210.861 126.414 211.191C125.833 211.509 125.378 211.959 125.048 212.539C124.73 213.119 124.57 213.779 124.57 214.519C124.57 215.258 124.73 215.918 125.048 216.498C125.378 217.079 125.833 217.534 126.414 217.864C126.994 218.182 127.654 218.341 128.393 218.341C129.588 218.341 130.589 217.869 131.397 216.925L133.172 218.563C132.603 219.257 131.897 219.786 131.055 220.15C130.214 220.514 129.275 220.696 128.24 220.696ZM138.903 220.628C137.936 220.628 137.066 220.429 136.292 220.031C135.53 219.621 134.932 219.058 134.5 218.341C134.068 217.625 133.852 216.811 133.852 215.901C133.852 214.991 134.068 214.177 134.5 213.461C134.932 212.744 135.53 212.186 136.292 211.788C137.066 211.379 137.936 211.174 138.903 211.174C139.87 211.174 140.735 211.379 141.497 211.788C142.259 212.186 142.857 212.744 143.289 213.461C143.721 214.177 143.937 214.991 143.937 215.901C143.937 216.811 143.721 217.625 143.289 218.341C142.857 219.058 142.259 219.621 141.497 220.031C140.735 220.429 139.87 220.628 138.903 220.628ZM138.903 218.444C139.586 218.444 140.143 218.216 140.575 217.761C141.019 217.295 141.241 216.675 141.241 215.901C141.241 215.127 141.019 214.513 140.575 214.058C140.143 213.591 139.586 213.358 138.903 213.358C138.22 213.358 137.657 213.591 137.213 214.058C136.77 214.513 136.548 215.127 136.548 215.901C136.548 216.675 136.77 217.295 137.213 217.761C137.657 218.216 138.22 218.444 138.903 218.444ZM151.297 211.174C152.435 211.174 153.351 211.515 154.045 212.198C154.75 212.88 155.103 213.893 155.103 215.235V220.492H152.441V215.645C152.441 214.917 152.281 214.376 151.963 214.024C151.644 213.66 151.184 213.478 150.581 213.478C149.909 213.478 149.375 213.688 148.976 214.109C148.578 214.519 148.379 215.133 148.379 215.952V220.492H145.717V211.31H148.26V212.385C148.612 211.999 149.05 211.703 149.574 211.498C150.097 211.282 150.672 211.174 151.297 211.174ZM161.985 220.628C161.018 220.628 160.148 220.429 159.374 220.031C158.612 219.621 158.014 219.058 157.582 218.341C157.15 217.625 156.934 216.811 156.934 215.901C156.934 214.991 157.15 214.177 157.582 213.461C158.014 212.744 158.612 212.186 159.374 211.788C160.148 211.379 161.018 211.174 161.985 211.174C162.952 211.174 163.817 211.379 164.579 211.788C165.341 212.186 165.939 212.744 166.371 213.461C166.803 214.177 167.019 214.991 167.019 215.901C167.019 216.811 166.803 217.625 166.371 218.341C165.939 219.058 165.341 219.621 164.579 220.031C163.817 220.429 162.952 220.628 161.985 220.628ZM161.985 218.444C162.668 218.444 163.225 218.216 163.657 217.761C164.101 217.295 164.323 216.675 164.323 215.901C164.323 215.127 164.101 214.513 163.657 214.058C163.225 213.591 162.668 213.358 161.985 213.358C161.302 213.358 160.739 213.591 160.295 214.058C159.852 214.513 159.63 215.127 159.63 215.901C159.63 216.675 159.852 217.295 160.295 217.761C160.739 218.216 161.302 218.444 161.985 218.444ZM173.236 220.628C172.258 220.628 171.376 220.429 170.591 220.031C169.817 219.621 169.208 219.058 168.765 218.341C168.332 217.625 168.116 216.811 168.116 215.901C168.116 214.991 168.332 214.177 168.765 213.461C169.208 212.744 169.817 212.186 170.591 211.788C171.376 211.379 172.258 211.174 173.236 211.174C174.203 211.174 175.045 211.379 175.762 211.788C176.49 212.186 177.019 212.761 177.349 213.512L175.284 214.621C174.806 213.779 174.118 213.358 173.219 213.358C172.525 213.358 171.95 213.586 171.495 214.041C171.04 214.496 170.813 215.116 170.813 215.901C170.813 216.686 171.04 217.306 171.495 217.761C171.95 218.216 172.525 218.444 173.219 218.444C174.129 218.444 174.817 218.023 175.284 217.181L177.349 218.307C177.019 219.035 176.49 219.604 175.762 220.014C175.045 220.423 174.203 220.628 173.236 220.628ZM187.759 215.935C187.759 215.969 187.742 216.208 187.707 216.652H180.762C180.887 217.221 181.183 217.67 181.649 218C182.116 218.33 182.696 218.495 183.39 218.495C183.868 218.495 184.289 218.427 184.653 218.29C185.028 218.142 185.375 217.915 185.694 217.608L187.11 219.144C186.245 220.133 184.983 220.628 183.322 220.628C182.286 220.628 181.37 220.429 180.574 220.031C179.778 219.621 179.163 219.058 178.731 218.341C178.299 217.625 178.082 216.811 178.082 215.901C178.082 215.002 178.293 214.194 178.714 213.478C179.146 212.75 179.732 212.186 180.472 211.788C181.222 211.379 182.059 211.174 182.98 211.174C183.879 211.174 184.692 211.367 185.421 211.754C186.149 212.141 186.718 212.698 187.127 213.427C187.548 214.143 187.759 214.979 187.759 215.935ZM182.997 213.188C182.394 213.188 181.888 213.358 181.478 213.7C181.069 214.041 180.819 214.507 180.728 215.099H185.25C185.159 214.519 184.909 214.058 184.499 213.717C184.089 213.364 183.589 213.188 182.997 213.188ZM200.286 220.048C200.024 220.241 199.7 220.389 199.313 220.492C198.938 220.583 198.539 220.628 198.119 220.628C197.026 220.628 196.179 220.349 195.576 219.792C194.984 219.235 194.688 218.415 194.688 217.335V213.563H193.272V211.515H194.688V209.28H197.351V211.515H199.637V213.563H197.351V217.3C197.351 217.687 197.447 217.989 197.641 218.205C197.845 218.41 198.13 218.512 198.494 218.512C198.915 218.512 199.273 218.398 199.569 218.171L200.286 220.048ZM211.03 211.31V220.492H208.504V219.399C208.152 219.798 207.731 220.105 207.241 220.321C206.752 220.526 206.223 220.628 205.654 220.628C204.448 220.628 203.493 220.281 202.787 219.587C202.082 218.893 201.729 217.864 201.729 216.498V211.31H204.391V216.106C204.391 217.585 205.011 218.324 206.252 218.324C206.889 218.324 207.401 218.12 207.787 217.71C208.174 217.289 208.368 216.669 208.368 215.85V211.31H211.03ZM128.245 232.174C129.098 232.174 129.872 232.373 130.566 232.771C131.271 233.158 131.823 233.71 132.221 234.427C132.62 235.132 132.819 235.957 132.819 236.901C132.819 237.845 132.62 238.676 132.221 239.393C131.823 240.098 131.271 240.65 130.566 241.048C129.872 241.435 129.098 241.628 128.245 241.628C127.073 241.628 126.152 241.258 125.48 240.519V244.802H122.818V232.31H125.361V233.368C126.021 232.572 126.982 232.174 128.245 232.174ZM127.784 239.444C128.467 239.444 129.024 239.216 129.457 238.761C129.9 238.295 130.122 237.675 130.122 236.901C130.122 236.127 129.9 235.513 129.457 235.058C129.024 234.591 128.467 234.358 127.784 234.358C127.102 234.358 126.538 234.591 126.095 235.058C125.662 235.513 125.446 236.127 125.446 236.901C125.446 237.675 125.662 238.295 126.095 238.761C126.538 239.216 127.102 239.444 127.784 239.444ZM137.144 233.522C137.462 233.078 137.889 232.743 138.424 232.515C138.97 232.288 139.595 232.174 140.301 232.174V234.631C140.005 234.609 139.806 234.597 139.703 234.597C138.941 234.597 138.344 234.813 137.912 235.246C137.479 235.667 137.263 236.304 137.263 237.157V241.492H134.601V232.31H137.144V233.522ZM146.169 241.628C145.202 241.628 144.332 241.429 143.558 241.031C142.796 240.621 142.199 240.058 141.766 239.341C141.334 238.625 141.118 237.811 141.118 236.901C141.118 235.991 141.334 235.177 141.766 234.461C142.199 233.744 142.796 233.186 143.558 232.788C144.332 232.379 145.202 232.174 146.169 232.174C147.136 232.174 148.001 232.379 148.763 232.788C149.525 233.186 150.123 233.744 150.555 234.461C150.987 235.177 151.204 235.991 151.204 236.901C151.204 237.811 150.987 238.625 150.555 239.341C150.123 240.058 149.525 240.621 148.763 241.031C148.001 241.429 147.136 241.628 146.169 241.628ZM146.169 239.444C146.852 239.444 147.409 239.216 147.842 238.761C148.285 238.295 148.507 237.675 148.507 236.901C148.507 236.127 148.285 235.513 147.842 235.058C147.409 234.591 146.852 234.358 146.169 234.358C145.487 234.358 144.923 234.591 144.48 235.058C144.036 235.513 143.814 236.127 143.814 236.901C143.814 237.675 144.036 238.295 144.48 238.761C144.923 239.216 145.487 239.444 146.169 239.444ZM162.455 232.31V239.956C162.455 241.64 162.017 242.891 161.141 243.71C160.264 244.529 158.985 244.939 157.301 244.939C156.413 244.939 155.571 244.831 154.775 244.615C153.979 244.399 153.319 244.086 152.795 243.676L153.853 241.765C154.24 242.083 154.73 242.334 155.321 242.516C155.913 242.709 156.504 242.806 157.096 242.806C158.017 242.806 158.694 242.595 159.127 242.174C159.57 241.765 159.792 241.139 159.792 240.297V239.905C159.098 240.667 158.131 241.048 156.891 241.048C156.049 241.048 155.276 240.866 154.57 240.502C153.876 240.126 153.324 239.603 152.915 238.932C152.505 238.261 152.3 237.487 152.3 236.611C152.3 235.735 152.505 234.961 152.915 234.29C153.324 233.619 153.876 233.101 154.57 232.737C155.276 232.362 156.049 232.174 156.891 232.174C158.222 232.174 159.235 232.612 159.929 233.488V232.31H162.455ZM157.42 238.864C158.126 238.864 158.7 238.659 159.144 238.249C159.599 237.828 159.826 237.282 159.826 236.611C159.826 235.94 159.599 235.399 159.144 234.99C158.7 234.569 158.126 234.358 157.42 234.358C156.715 234.358 156.135 234.569 155.679 234.99C155.224 235.399 154.997 235.94 154.997 236.611C154.997 237.282 155.224 237.828 155.679 238.249C156.135 238.659 156.715 238.864 157.42 238.864ZM167.475 233.522C167.794 233.078 168.22 232.743 168.755 232.515C169.301 232.288 169.927 232.174 170.632 232.174V234.631C170.337 234.609 170.137 234.597 170.035 234.597C169.273 234.597 168.676 234.813 168.243 235.246C167.811 235.667 167.595 236.304 167.595 237.157V241.492H164.932V232.31H167.475V233.522ZM181.126 236.935C181.126 236.969 181.109 237.208 181.074 237.652H174.129C174.254 238.221 174.55 238.67 175.016 239C175.483 239.33 176.063 239.495 176.757 239.495C177.235 239.495 177.656 239.427 178.02 239.29C178.395 239.142 178.742 238.915 179.061 238.608L180.477 240.144C179.612 241.133 178.35 241.628 176.689 241.628C175.653 241.628 174.737 241.429 173.941 241.031C173.145 240.621 172.53 240.058 172.098 239.341C171.666 238.625 171.449 237.811 171.449 236.901C171.449 236.002 171.66 235.194 172.081 234.478C172.513 233.75 173.099 233.186 173.839 232.788C174.589 232.379 175.426 232.174 176.347 232.174C177.246 232.174 178.06 232.367 178.788 232.754C179.516 233.141 180.085 233.698 180.494 234.427C180.915 235.143 181.126 235.979 181.126 236.935ZM176.364 234.188C175.761 234.188 175.255 234.358 174.845 234.7C174.436 235.041 174.186 235.507 174.095 236.099H178.617C178.526 235.519 178.276 235.058 177.866 234.717C177.457 234.364 176.956 234.188 176.364 234.188ZM185.987 241.628C185.225 241.628 184.479 241.537 183.751 241.355C183.023 241.162 182.443 240.923 182.011 240.638L182.898 238.727C183.308 238.989 183.803 239.205 184.383 239.376C184.963 239.535 185.532 239.614 186.089 239.614C187.216 239.614 187.779 239.336 187.779 238.778C187.779 238.517 187.625 238.329 187.318 238.215C187.011 238.101 186.539 238.005 185.902 237.925C185.151 237.811 184.531 237.68 184.041 237.532C183.552 237.385 183.126 237.123 182.762 236.747C182.409 236.372 182.233 235.837 182.233 235.143C182.233 234.563 182.397 234.051 182.727 233.607C183.069 233.152 183.558 232.8 184.195 232.549C184.844 232.299 185.606 232.174 186.482 232.174C187.13 232.174 187.773 232.248 188.41 232.396C189.059 232.532 189.594 232.726 190.014 232.976L189.127 234.87C188.319 234.415 187.438 234.188 186.482 234.188C185.913 234.188 185.486 234.267 185.202 234.427C184.918 234.586 184.775 234.791 184.775 235.041C184.775 235.325 184.929 235.524 185.236 235.638C185.543 235.752 186.032 235.86 186.704 235.962C187.455 236.088 188.069 236.224 188.547 236.372C189.025 236.509 189.44 236.765 189.793 237.14C190.145 237.515 190.322 238.039 190.322 238.71C190.322 239.279 190.151 239.785 189.81 240.229C189.468 240.673 188.968 241.02 188.308 241.27C187.659 241.509 186.886 241.628 185.987 241.628ZM196.333 241.628C195.366 241.628 194.496 241.429 193.722 241.031C192.96 240.621 192.362 240.058 191.93 239.341C191.498 238.625 191.282 237.811 191.282 236.901C191.282 235.991 191.498 235.177 191.93 234.461C192.362 233.744 192.96 233.186 193.722 232.788C194.496 232.379 195.366 232.174 196.333 232.174C197.3 232.174 198.165 232.379 198.927 232.788C199.689 233.186 200.287 233.744 200.719 234.461C201.151 235.177 201.367 235.991 201.367 236.901C201.367 237.811 201.151 238.625 200.719 239.341C200.287 240.058 199.689 240.621 198.927 241.031C198.165 241.429 197.3 241.628 196.333 241.628ZM196.333 239.444C197.016 239.444 197.573 239.216 198.005 238.761C198.449 238.295 198.671 237.675 198.671 236.901C198.671 236.127 198.449 235.513 198.005 235.058C197.573 234.591 197.016 234.358 196.333 234.358C195.65 234.358 195.087 234.591 194.644 235.058C194.2 235.513 193.978 236.127 193.978 236.901C193.978 237.675 194.2 238.295 194.644 238.761C195.087 239.216 195.65 239.444 196.333 239.444ZM202.806 229.546H205.98L205.451 237.345H203.335L202.806 229.546ZM204.393 241.628C203.926 241.628 203.534 241.48 203.215 241.185C202.908 240.877 202.754 240.508 202.754 240.075C202.754 239.643 202.908 239.285 203.215 239C203.522 238.704 203.915 238.556 204.393 238.556C204.871 238.556 205.263 238.704 205.57 239C205.877 239.285 206.031 239.643 206.031 240.075C206.031 240.508 205.872 240.877 205.553 241.185C205.246 241.48 204.859 241.628 204.393 241.628Z" fill="#00C950"/>
<defs>
<filter id="filter0_d" x="0" y="0" width="181" height="181" filterUnits="userSpaceOnUse" color-interpolation-filters="sRGB">
<feFlood flood-opacity="0" result="BackgroundImageFix"/>
<feColorMatrix in="SourceAlpha" type="matrix" values="0 0 0 0 0 0 0 0 0 0 0 0 0 0 0 0 0 0 127 0"/>
<feOffset dy="4"/>
<feGaussianBlur stdDeviation="5.5"/>
<feColorMatrix type="matrix" values="0 0 0 0 0.416667 0 0 0 0 0.416667 0 0 0 0 0.416667 0 0 0 0.17 0"/>
<feBlend mode="normal" in2="BackgroundImageFix" result="effect1_dropShadow"/>
<feBlend mode="normal" in="SourceGraphic" in2="effect1_dropShadow" result="shape"/>
</filter>
<clipPath id="clip0">
<rect width="159" height="159" fill="white" transform="translate(11 7)"/>
</clipPath>
</defs>
</svg>
