<svg width="24" height="24" viewBox="0 0 24 24" fill="none" xmlns="http://www.w3.org/2000/svg">
<path d="M11 18H7.94102C7.64402 16.727 6.30402 15.686 5.75402 15C4.81221 13.8233 4.22197 12.4045 4.05129 10.907C3.8806 9.40947 4.13642 7.89421 4.78927 6.53575C5.44213 5.17728 6.46546 4.03087 7.74138 3.22858C9.0173 2.4263 10.4939 2.00076 12.0011 2.001C13.5083 2.00124 14.9848 2.42725 16.2604 3.22995C17.5361 4.03265 18.5591 5.17938 19.2115 6.53805C19.8639 7.89673 20.1192 9.41207 19.9481 10.9095C19.7769 12.407 19.1862 13.8256 18.244 15.002C17.694 15.687 16.356 16.728 16.059 18H13V13H11V18ZM16 20V21C16 21.5304 15.7893 22.0391 15.4142 22.4142C15.0392 22.7893 14.5305 23 14 23H10C9.46959 23 8.96088 22.7893 8.58581 22.4142C8.21073 22.0391 8.00002 21.5304 8.00002 21V20H16Z" fill="#AFB0D6"/>
</svg>
